<?xml version="1.0" encoding="UTF-8" standalone="no"?>
<!-- Created with Inkscape (http://www.inkscape.org/) -->

<svg
   xmlns:dc="http://purl.org/dc/elements/1.1/"
   xmlns:cc="http://creativecommons.org/ns#"
   xmlns:rdf="http://www.w3.org/1999/02/22-rdf-syntax-ns#"
   xmlns:svg="http://www.w3.org/2000/svg"
   xmlns="http://www.w3.org/2000/svg"
   xmlns:sodipodi="http://sodipodi.sourceforge.net/DTD/sodipodi-0.dtd"
   xmlns:inkscape="http://www.inkscape.org/namespaces/inkscape"
   id="svg3027"
   version="1.1"
   inkscape:version="0.48.4 r9939"
   width="873"
   height="1084"
   sodipodi:docname="prophet.png">
  <metadata
     id="metadata3033">
    <rdf:RDF>
      <cc:Work
         rdf:about="">
        <dc:format>image/svg+xml</dc:format>
        <dc:type
           rdf:resource="http://purl.org/dc/dcmitype/StillImage" />
        <dc:title></dc:title>
      </cc:Work>
    </rdf:RDF>
  </metadata>
  <defs
     id="defs3031" />
  <sodipodi:namedview
     pagecolor="#ffffff"
     bordercolor="#666666"
     borderopacity="1"
     objecttolerance="10"
     gridtolerance="10"
     guidetolerance="10"
     inkscape:pageopacity="0"
     inkscape:pageshadow="2"
     inkscape:window-width="640"
     inkscape:window-height="480"
     id="namedview3029"
     showgrid="false"
     inkscape:zoom="11.950664"
     inkscape:cx="137.21327"
     inkscape:cy="746.7682"
     inkscape:window-x="0"
     inkscape:window-y="0"
     inkscape:window-maximized="0"
     inkscape:current-layer="svg3027" />
  <path
     style="fill:#000000"
     d="m 481.02516,1083.6006 c -8.5556,-0.5555 -13.10435,-2.1927 -18.95368,-6.8221 l -2.45368,-1.942 7.33219,-16.0871 7.3322,-16.0872 -1.78934,-8.5265 -1.78934,-8.5265 2.41083,-5.1561 c 3.02223,-6.4637 2.99092,-13.0202 -0.10707,-22.422 -3.70164,-11.23388 -10.63163,-24.90594 -14.10592,-27.82936 -5.1497,-4.33319 -13.82163,-8.19715 -22.33334,-9.95107 -4.37643,-0.9018 -8.9731,-2.30532 -10.21481,-3.11893 -1.24172,-0.8136 -2.44041,-1.47928 -2.66375,-1.47928 -0.63952,0 1.17705,8.83503 2.21555,10.77548 0.5142,0.9608 1.86598,2.5895 3.00395,3.61936 1.13798,1.02985 1.8281,2.26231 1.53361,2.73881 -1.0489,1.69716 -4.81363,0.82058 -9.56195,-2.2264 -2.6508,-1.70102 -6.56643,-3.32705 -8.7014,-3.61341 -3.26255,-0.4376 -4.14277,-0.14803 -5.51791,1.81526 -4.0389,5.76633 -0.61422,12.98421 11.67874,24.61424 8.12251,7.6845 22.36379,18.5643 34.06629,26.0253 3.91536,2.4963 7.46253,4.8402 7.8826,5.2088 2.13259,1.8709 -31.41639,-6.0439 -37.26377,-8.7912 -4.87881,-2.2922 -9.42453,-3.428 -18.2256,-4.5538 -10.71475,-1.3706 -12.53788,-1.9262 -21.1479,-6.4445 -7.7263,-4.0545 -10.72951,-5.0758 -16.68468,-5.6738 -9.83045,-0.9873 -22.53395,-5.4327 -28.46765,-9.962 -3.94967,-3.01485 -5.41589,-3.5938 -7.86235,-3.1045 -4.94475,0.989 -7.61182,3.2804 -7.61182,6.5397 0,4.7102 3.68462,7.9209 12.52693,10.9157 6.43996,2.1811 8.03452,3.125 8.29262,4.9086 0.38535,2.663 0.53284,2.6595 -8.81955,0.2083 -4.799,-1.2578 -10.81491,-1.9719 -16.70469,-1.9829 l -9.20468,-0.017 -0.68539,3.6534 c -0.37696,2.0094 -0.42982,8.8719 -0.11746,15.25 0.5952,12.1537 3.18074,22.7981 9.56483,39.3773 l 2.93589,7.6244 -11.07288,3.6897 c -10.87657,3.6242 -11.26922,3.6784 -22.14682,3.0571 -11.54997,-0.6596 -21.47269,-2.7093 -25.32772,-5.2317 -1.24241,-0.8129 -2.8605,-2.9275 -3.59576,-4.6991 -1.72933,-4.1668 -0.81295,-6.886 8.37915,-24.8636 3.83654,-7.5033 6.97553,-14.0908 6.97553,-14.6389 0,-0.548 -0.72522,-0.9339 -1.61161,-0.8575 -0.88638,0.076 -2.08832,-0.5959 -2.67096,-1.4939 -1.52757,-2.3545 4.03819,-19.358 11.3802,-34.7667 l 5.90818,-12.39959 -5.06711,-11.10043 c -6.75564,-14.79945 -8.02186,-22.86003 -5.71822,-36.40119 1.34527,-7.90769 2.70177,-11.77854 7.4249,-21.18729 6.84488,-13.63541 7.53964,-18.45719 4.82878,-33.513 -3.15398,-17.51681 -1.04292,-28.37021 9.68565,-49.79606 9.47021,-18.91279 9.85354,-26.20584 2.24938,-42.79493 -4.3508,-9.49162 -4.76593,-11.05503 -4.75398,-17.90385 0.008,-4.42964 0.88294,-10.78173 2.13619,-15.5041 1.1677,-4.4 3.01557,-13.56219 4.10637,-20.36043 2.24354,-13.98242 3.77195,-16.98976 12.34427,-24.28886 10.07832,-8.58142 12.46067,-9.41808 16.36729,-5.748 1.98044,1.86053 2.6409,1.96981 5.73446,0.94885 4.84325,-1.59842 6.24062,-3.50439 5.03037,-6.86131 -0.65468,-1.81591 -1.564,-2.58536 -2.79787,-2.36751 -1.70527,0.30107 -1.79918,-0.47096 -1.39896,-11.5 0.44155,-12.16779 1.57641,-15.99739 7.58564,-25.59784 2.07603,-3.3167 1.16194,-4.23778 -5.24251,-5.28251 -10.1504,-1.65579 -18.9282,-8.08776 -21.44508,-15.71399 -1.0625,-3.21939 -0.5406,-5.68572 5.87931,-27.78397 3.87492,-13.33812 7.04531,-25.94199 7.04531,-28.0087 0,-4.49748 -2.54476,-12.96313 -7.6898,-25.58166 l -3.79169,-9.29934 -6.17861,-3.13609 c -6.40763,-3.25235 -16.4138,-4.86996 -21.78518,-3.52183 l -2.61736,0.65692 4.48836,6.28987 c 6.09441,8.54056 10.57428,17.28097 10.57428,20.63089 l 0,2.77149 -12.25,-3.69285 c -14.19734,-4.2799 -17.09628,-5.66362 -21.40678,-10.21791 -4.48346,-4.73705 -18.71786,-26.82677 -23.54828,-36.54355 -4.73004,-9.51484 -5.58123,-15.11854 -3.88946,-25.60577 l 1.16738,-7.23655 -4.92897,-10.47472 c -2.71093,-5.7611 -8.61845,-19.47473 -13.12782,-30.47473 -4.50937,-11 -9.58375,-23.05791 -11.2764,-26.79535 -3.3647,-7.42938 -3.22771,-8.05585 2.39285,-10.94309 l 2.63252,-1.3523 -16.41472,-21.39218 c -10.28549,-13.40439 -17.52056,-21.92776 -19.37629,-22.82652 -1.62886,-0.78888 -3.91004,-2.96898 -5.06927,-4.84467 l -2.10771,-3.41034 -10.5362,15.17424 c -21.73641,31.30478 -29.43522,44.78329 -36.69459,64.24225 -5.4527,14.61612 -7.51236,26.14737 -8.5739,48.00203 -1.39187,28.65523 -4.01776,38.31573 -23.641894,86.97718 -11.799107,29.25793 -14.833637,38.32715 -17.455467,52.16875 -1.11382,5.88024 -1.3706,6.22954 -12.86446,17.5 -10.37334,10.17172 -12.23632,12.53354 -16.12925,20.44821 l -4.40129,8.94821 -0.026,13.55179 c -0.0143,7.45348 -0.12679,14.52884 -0.25,15.72301 -0.12321,1.19417 -3.13142,5.33935 -6.6849,9.21152 -7.15896,7.80098 -6.47056,6.07827 -14.30492,35.79808 l -4.79259,18.18083 -2.9216,-5.58019 c -3.08558,-5.89338 -9.8166297,-11.28146 -14.0933497,-11.28146 -5.3504798,0 -4.8536898,-2.14979 4.12922,-17.86864 6.3982897,-11.19611 9.1213897,-17.08814 10.5621297,-22.85353 1.3737,-5.49709 4.70703,-12.92783 11.40164,-25.41684 12.07086,-22.51854 13.14371,-25.09874 14.47302,-34.80745 1.33781,-9.77084 2.89761,-13.69508 8.66965,-21.81174 9.19852,-12.93496 12.24862,-22.13578 15.31213,-46.18999 2.53857,-19.93239 3.96179,-25.2343 10.21447,-38.05181 18.318477,-37.55146 24.651211,-60.41458 29.325251,-105.87337 0.86938,-8.45536 2.17422,-17.09613 2.89965,-19.20171 1.95902,-5.68608 9.78658,-17.77647 16.06256,-24.81009 7.78581,-8.72572 15.12876,-24.03026 16.58687,-34.57116 0.60532,-4.37599 1.74156,-9.84428 2.52497,-12.15178 1.51359,-4.45818 1.15045,-6.89446 -1.15982,-7.78099 -0.77932,-0.29906 -2.28031,-1.96342 -3.33553,-3.69859 -1.70913,-2.81043 -1.77543,-3.56058 -0.60733,-6.87133 1.01392,-2.87374 1.06159,-4.80751 0.21025,-8.5279 -1.09304,-4.77659 -1.07644,-4.83193 2.29473,-7.64631 l 3.39575,-2.83489 -1.27213,-4.96358 c -1.5322,-5.97834 -0.66563,-8.03814 4.04571,-9.61648 3.0307,-1.01531 3.36976,-1.52798 3.65978,-5.53359 0.43705,-6.03656 2.38101,-7.91823 8.18037,-7.91823 5.9367,0 7.00384,-1.16426 11.00617,-12.0079 4.54899,-12.32472 7.75202,-25.83416 10.04127,-42.35116 2.56401,-18.49933 3.53614,-21.5934 10.39695,-33.09091 3.10271,-5.19959 7.29193,-12.96295 9.30939,-17.25191 3.8683,-8.22371 4.33381,-12.0791 2.7629,-22.88252 -0.57635,-3.96367 -0.35204,-5.83728 1.01764,-8.5 2.79632,-5.43617 9.4204,-13.57566 20.68373,-25.4156 5.75537,-6.05 11.01071,-12.029511 11.67854,-13.287801 1.40797,-2.65281 4.10341,-16.013565 4.10341,-20.33975 0,-2.256261 -1.5313,-4.582054 -6.5,-9.872449 -4.75459,-5.062418 -6.5059,-7.669907 -6.52196,-9.710417 -0.0304,-3.860555 -2.87258,-9.664062 -8.35373,-17.057637 -4.45128,-6.004368 -4.58113,-6.368212 -3.08679,-8.648872 1.59005,-2.426717 3.73989,-3.486809 11.11974,-5.483178 5.16077,-1.396072 9.87207,-6.528328 11.32488,-12.336766 2.31985,-9.2748667 6.61568,-12.7588597 15.73528,-12.7615757 5.12272,-0.0015 5.33143,0.117588 11.5,6.563265 3.45542,3.6106497 6.86734,7.6757067 7.58205,9.0334607 2.71802,5.163503 5.27446,18.397795 6.25539,32.383089 0.94578,13.484297 1.315,15.266671 5.18254,25.018631 4.76975,12.026889 5.22463,17.460949 2.15671,25.76438 -1.58735,4.29619 -2.67603,5.63451 -5.91959,7.27696 -9.20238,4.65984 -11.47452,8.60214 -11.47452,19.909 0,7.94781 -0.0321,8.04966 -2.53324,8.04966 -7.52212,0 -23.66184,13.5676 -28.91687,24.3085 -2.1407,4.37544 -2.67091,6.69985 -2.37508,10.41222 0.33828,4.245 0.0663,5.04412 -2.43289,7.1484 -3.61207,3.04127 -5.74192,7.1954 -5.74192,11.19921 0,2.07657 -1.00886,4.31666 -2.92895,6.50353 -5.91856,6.74086 -20.27686,34.41998 -29.96206,57.75914 l -4.07963,9.831 3.48532,3.28708 c 4.22057,3.98051 4.2085,3.66805 1.04224,26.96867 -2.09764,15.43669 -2.24789,18.27917 -1.08504,20.52787 0.74236,1.43557 1.9999,5.09985 2.79454,8.14284 1.27686,4.88964 3.98441,8.63492 23.29414,32.22213 12.01713,14.67918 22.42354,26.68941 23.12534,26.68941 0.7018,0 1.55835,-1.125 1.90346,-2.5 0.38093,-1.51775 1.34046,-2.5 2.44219,-2.5 1.94442,0 25.65489,24.38243 33.54922,34.5 2.57485,3.3 5.97853,8.86782 7.56372,12.37292 3.65344,8.07834 7.18476,12.5222 14.51867,18.27049 4.95259,3.88183 6.17343,4.42351 8.05861,3.57553 4.61193,-2.07449 13.98536,8.40545 17.29508,19.33671 0.9707,3.20602 2.8092,7.31756 4.08554,9.13674 3.73296,5.32064 13.0803,14.80761 14.58967,14.80761 2.1218,0 9.30794,-3.90667 9.30794,-5.06016 0,-0.56073 -0.85304,-2.69162 -1.89565,-4.7353 -1.98808,-3.89695 -3.86944,-9.98515 -5.15562,-16.68387 -0.66169,-3.4462 -0.29657,-4.85292 2.72532,-10.5 3.26129,-6.09444 3.45008,-6.94555 2.88817,-13.02067 -0.33067,-3.575 -0.14289,-8.07044 0.41727,-9.98987 2.94456,-10.08963 15.17792,-21.32501 30.02051,-27.57148 11.64905,-4.90247 12.56558,-4.99037 21.14782,-2.02818 4.1264,1.42424 9.47574,2.58953 11.88743,2.58953 2.99661,0 7.88021,1.49123 15.42482,4.71005 13.96259,5.95696 20.07602,9.49035 24.74612,14.30254 5.62962,5.8009 15.12413,10.03455 25.26019,11.26365 4.69349,0.56913 8.53362,1.33158 8.53362,1.69434 0,0.36276 -2.94798,1.70028 -6.55108,2.97228 -5.84825,2.06461 -7.14582,2.19329 -12.09473,1.1994 -3.04902,-0.61233 -9.43853,-2.72689 -14.19893,-4.69904 -4.76039,-1.97214 -9.33026,-3.85071 -10.15526,-4.1746 -1.01693,-0.39923 -0.84062,0.1873 0.54745,1.82125 4.94447,5.8203 4.98826,5.96727 1.57449,5.28452 -4.15675,-0.83135 -3.93419,0.56543 0.57769,3.62561 2.02728,1.375 7.5367,6.38203 12.24316,11.12674 4.70647,4.74471 9.53483,8.92646 10.7297,9.29279 1.84692,0.56623 3.11657,-0.57672 8.47224,-7.62674 3.46487,-4.56104 8.97171,-11.0944 12.23744,-14.51859 5.71523,-5.99255 11.60464,-13.89652 11.61355,-15.58613 0.002,-0.44655 1.14116,-3.21509 2.53068,-6.1523 2.31621,-4.89606 3.18408,-5.68254 10.43127,-9.45294 9.19848,-4.78557 14.34952,-10.08024 20.51093,-21.08283 3.33754,-5.95994 5.05876,-7.94225 8.38223,-9.65373 5.44469,-2.80384 15.58475,-4.05959 17.81755,-2.20653 1.41675,1.17581 2.54555,0.35211 9.11163,-6.64884 10.74864,-11.46053 21.65247,-24.66636 24.79706,-30.03219 l 2.71163,-4.62706 -1.78604,-7.82 c -0.98232,-4.301 -1.51682,-8.84951 -1.18777,-10.1078 0.97371,-3.72346 -3.94595,-22.29435 -7.96178,-30.05441 -2.78299,-5.37775 -3.43211,-7.50379 -2.6652,-8.72932 2.48176,-3.96595 10.50731,-1.09945 14.33696,5.12074 1.10362,1.79253 3.12941,6.78538 4.50174,11.09522 3.2846,10.31532 3.76635,11.10053 8.06094,13.13844 2.99234,1.41996 4.13414,1.52161 6.28458,0.55947 5.88524,-2.63316 15.32568,-9.51583 16.70155,-12.17648 0.80737,-1.56127 2.57047,-3.56108 3.918,-4.44402 1.34754,-0.88293 5.35803,-5.49967 8.91221,-10.25941 8.63601,-11.56532 14.47953,-17.17422 18.17165,-17.44207 5.36467,-0.38919 4.14051,2.90777 -7.03644,18.95086 -14.53349,20.86097 -14.31003,21.3955 3.66755,8.77309 20.33651,-14.27866 30.81396,-19.15177 32.38348,-15.06169 1.44317,3.76085 -0.99807,6.40347 -17.10946,18.52079 -9.06437,6.81729 -16.48067,12.75376 -16.48067,13.19217 0,0.43841 8.76236,0.52839 19.47191,0.19996 18.18646,-0.55773 19.51782,-0.47754 20.16717,1.21465 0.38633,1.00676 0.0566,2.94973 -0.74218,4.37278 -1.33548,2.37932 -2.60641,2.75481 -17.91717,5.29357 -24.96353,4.13934 -23.14682,3.65817 -22.79182,6.03664 0.4225,2.83063 1.52081,3.28124 14.98411,6.1476 18.73567,3.98885 24.70198,7.6191 18.07798,10.99969 -2.4072,1.22852 -4.83205,1.13079 -19.45264,-0.78403 l -16.70263,-2.18749 -1.9014,2.5597 c -1.43899,1.9372 -5.0474,3.59327 -14.83762,6.8097 -7.11492,2.3375 -13.83047,4.25 -14.92345,4.25 -2.85038,0 -6.43226,2.78983 -6.43226,5.00991 0,1.26791 -1.40866,2.52323 -4.25,3.78736 -8.98521,3.99759 -28.29604,28.86883 -32.76755,42.20273 -3.12768,9.32663 -2.48328,15.77845 2.32506,23.27898 5.09636,7.94979 11.21333,14.40558 17.44249,18.40865 5.70156,3.66402 6.09397,4.36642 3.59778,6.43993 -1.91403,1.58992 -16.04498,1.81957 -28.84778,0.46881 -6.39691,-0.67491 -8.73814,-0.53443 -11.68358,0.70102 -7.29846,3.06129 -8.29777,10.46856 -2.28688,16.95105 3.80253,4.10085 7.37899,5.5714 17.64615,7.25564 5.12837,0.84126 11.9729,1.96027 15.21007,2.48669 5.74645,0.93446 10.61424,3.18951 10.61424,4.91713 0,0.47399 -2.925,0.627 -6.5,0.34004 -3.575,-0.28697 -6.49999,-0.12265 -6.49997,0.36515 2e-5,0.4878 1.57502,2.14359 3.5,3.67954 2.635,2.10247 3.49997,3.55218 3.49997,5.86602 0,6.0413 12.8285,20.04222 22.36373,24.40759 2.91492,1.3345 10.31327,3.53523 16.44077,4.89052 17.32742,3.8325 24.1955,7.4844 24.1955,12.86524 0,1.72041 -0.73499,1.84784 -8.81039,1.5275 -7.86369,-0.31195 -9.15801,-0.64217 -12.04547,-3.0732 -1.77929,-1.49803 -5.12712,-3.20986 -7.43961,-3.80406 -10.88847,-2.79781 -33.12117,-10.61855 -41.44012,-14.5773 -9.6409,-4.58781 -15.32977,-5.53007 -18.66475,-3.09147 -1.5645,1.14399 -1.64286,1.82237 -0.64052,5.54479 0.94307,3.50228 2.04806,4.81987 6.34147,7.56154 13.86104,8.85135 31.51069,16.97966 42.47027,19.55913 4.51833,1.06345 7.22912,3.08066 7.22912,5.37949 0,0.26394 -7.80494,0.2277 -17.3443,-0.0805 l -17.3443,-0.56044 -5.9057,2.83954 c -4.78952,2.30287 -7.6067,2.91605 -14.9057,3.24433 -20.15263,0.90639 -21.2281,0.78392 -33,-3.75802 -33.00276,-12.73345 -37.1238,-14.03333 -44.48988,-14.03333 -8.11561,0 -13.13539,1.73536 -15.51203,5.36258 -0.97944,1.49481 -3.62217,3.18219 -6.46018,4.12483 -2.64148,0.87736 -5.48821,2.36411 -6.32606,3.30389 -0.83786,0.93979 -2.04248,5.3087 -2.67693,9.7087 -2.6188,18.16148 -3.91548,22.76084 -8.73634,30.98804 -8.16299,13.93082 -8.46175,14.65847 -8.0309,19.55927 0.21988,2.50102 2.2746,8.6173 4.56605,13.59174 2.89855,6.29238 4.16627,10.39122 4.16627,13.47056 0,6.18565 -3.46065,10.98189 -9.9327,13.76609 -2.78701,1.19894 -5.0673,2.64561 -5.0673,3.21481 0,1.46788 11.54124,6.51541 20.54659,8.98599 4.93559,1.35406 10.67877,2.10212 16.28851,2.1216 16.10737,0.056 46.99774,-3.16505 64.72516,-6.74902 13.92233,-2.81468 19.25636,-3.44266 29,-3.41419 19.80486,0.0579 32.46454,3.28439 42.27811,10.77525 2.44754,1.86825 6.95403,4.25831 10.01442,5.31124 4.51061,1.55187 6.76105,3.2256 11.88353,8.83817 6.81419,7.46612 17.17695,14.93814 24.92791,17.97414 2.65967,1.04178 8.88577,2.41209 13.83577,3.04514 4.95,0.63306 9.39611,1.54041 9.88025,2.01634 1.49438,1.46905 -6.06444,2.28938 -16.22529,1.76087 -12.44011,-0.64707 -17.47014,-2.684 -31.59294,-12.79373 -17.65846,-12.6407 -17.97584,-10.40656 -0.86476,6.08742 16.10289,15.52215 27.30683,21.91179 57.80274,32.96503 8.8,3.18956 18.25,6.76906 21,7.95443 5.38454,2.32099 20.78119,11.08971 20.29516,11.55853 -0.16234,0.15659 -5.92016,-1.26947 -12.79516,-3.16902 -10.09521,-2.78928 -14.90479,-3.55278 -25,-3.96861 l -12.5,-0.51489 4,3.69509 c 8.76989,8.10139 23.79371,16.47354 42.78928,23.84468 21.01574,8.15507 52.72596,23.55201 48.55436,23.57565 -0.911,0.005 -9.911,-2.44085 -20,-5.43557 -41.71037,-12.38092 -55.78402,-18.44481 -82.19942,-35.41715 -8.32932,-5.35172 -17.6989,-11.18634 -20.82128,-12.96581 -11.04004,-6.29182 -19.93901,-16.27159 -35.82145,-40.17209 -10.92126,-16.43474 -15.47416,-21.59379 -21.79665,-24.69855 -4.70176,-2.30887 -6.93565,-2.78408 -12.70484,-2.70268 -6.87758,0.097 -16.51427,2.94405 -17.22967,5.09024 -0.17588,0.52764 6.53794,3.61078 14.91959,6.85141 14.45993,5.59068 15.06217,5.93075 11.77473,6.64872 -4.27547,0.93376 -24.67977,-0.71128 -31.46465,-2.53675 -2.75,-0.73988 -9.275,-3.09326 -14.5,-5.22972 -8.58691,-3.51112 -10.36503,-3.88631 -18.5,-3.90357 -8.48005,-0.018 -15.5,1.57285 -15.5,3.51258 0,1.15154 11.85759,8.45456 24.5,15.08943 14.05078,7.37398 26.74932,12.23466 37.5,14.35403 22.72362,4.4797 27.47476,7.08372 33.71177,18.47683 2.49901,4.56491 4.14868,8.12784 3.66594,7.91762 -0.48274,-0.21022 -5.16211,-2.51135 -10.3986,-5.11363 -9.40993,-4.67627 -18.97911,-7.16238 -18.97911,-4.93084 0,3.66514 16.16033,13.42008 28.24056,17.04698 31.3043,9.39863 66.43476,25.9481 82.57033,38.89775 7.04844,5.65675 16.66226,16.55149 11.93911,13.52984 -0.6875,-0.43983 -4.4928,-2.92161 -8.45622,-5.51507 -14.66668,-9.59713 -27.71685,-14.7311 -37.54378,-14.76984 -4.59416,-0.0181 -4.7728,1.28372 -0.90364,6.58518 2.42019,3.31611 4.40402,4.49893 13.25,7.90004 l 10.40364,4 -5.71202,0.29877 c -3.14161,0.16432 -7.52902,-0.1905 -9.74981,-0.78849 -2.22078,-0.59799 -12.02537,-6.38751 -21.78797,-12.86558 -23.35568,-15.49789 -27.12481,-17.67009 -28.41755,-16.37735 -1.97068,1.97068 0.33944,7.30453 5.63923,13.02044 9.7315,10.49557 28.1244,19.58018 60.37321,29.8195 21.27401,6.7547 32.15491,10.63212 32.15491,11.45841 0,0.3373 -1.16035,1.14196 -2.57855,1.78814 -3.80805,1.73506 -2.48953,3.41634 3.90272,4.97647 3.12171,0.76189 5.67583,1.67851 5.67583,2.03693 0,1.39429 -4.36874,3.27027 -8.82635,3.79012 -4.0599,0.47347 -5.73828,0.0124 -12.78076,-3.51083 -4.45891,-2.23073 -16.83391,-7.28507 -27.5,-11.23188 -40.61579,-15.02916 -58.93143,-25.9628 -71.88913,-42.91465 -10.43763,-13.65498 -32.97424,-34.38741 -42.89891,-39.46461 l -3.39515,-1.73687 0.6567,3.35074 c 0.97267,4.96299 3.25416,7.52885 14.46756,16.27085 5.58754,4.35606 9.95614,8.12313 9.708,8.37126 -0.24814,0.24814 -4.85909,-1.68807 -10.24656,-4.30268 -9.25971,-4.49387 -10.58838,-5.55848 -24.2954,-19.46682 -9.89591,-10.04126 -17.21778,-16.49738 -23.05933,-20.33276 l -8.55932,-5.61979 -33.35817,-8.03384 c -18.34699,-4.41861 -33.47992,-7.91207 -33.62874,-7.76325 -0.14882,0.14882 2.76797,7.01095 6.48176,15.24917 3.71379,8.23823 8.50106,19.40195 10.63839,24.80826 4.3769,11.07128 6.64979,13.57876 14.70437,16.22212 8.7982,2.8874 17.61328,7.41949 19.77399,10.16639 1.12354,1.42835 2.76408,5.11359 3.64565,8.18941 2.12565,7.41653 2.80486,8.08677 8.23384,8.12507 2.54516,0.018 6.91357,0.82291 9.70758,1.78879 13.40141,4.63281 38.26531,21.8733 54.91998,38.0812 5.5,5.35246 16.7529,15.36589 25.00644,22.25208 8.65727,7.22303 22.83099,20.67082 33.5,31.78425 20.25406,21.09776 21.65987,22.10955 37.76854,27.18286 16.03134,5.04896 20.52527,6.83602 24.79277,9.8591 2.23726,1.58486 7.05171,4.07614 10.69879,5.53616 7.97437,3.19236 9.18918,4.45429 8.34609,8.66977 -1.10293,5.51466 -3.10869,6.81314 -10.52422,6.81314 -10.32569,0 -12.49529,-1.02898 -20.62845,-9.78355 -10.81137,-11.6374 -29.8894,-23.92306 -40.02677,-25.77602 -2.16326,-0.39541 -8.20819,-2.85317 -13.43319,-5.4617 -22.85106,-11.40816 -56.90328,-25.93335 -68.06767,-29.0347 -9.10467,-2.52918 -12.32002,-2.80888 -15.76125,-1.37105 -3.08463,1.28885 -3.28372,1.64153 -2.63091,4.66069 1.04645,4.83971 4.88596,11.90317 8.11658,14.93188 1.56379,1.46605 8.59316,6.28881 15.62082,10.71725 7.02766,4.42843 16.47766,10.92212 21,14.43041 10.94943,8.49425 17.5027,12.56247 31.50648,19.55902 16.96,8.47353 29.31861,13.12777 34.85875,13.12777 3.87145,0 8.97067,2.0355 30.25668,12.07779 14.08029,6.64279 29.20052,13.19838 33.60052,14.56799 36.03741,11.21754 63.1414,23.99126 92.91747,43.79056 21.0563,14.0013 30.28588,21.8088 35.06603,29.6633 2.20908,3.6298 5.92609,8.8048 8.26004,11.5 4.48334,5.1772 5.15996,7.4056 2.8346,9.3354 -2.71647,2.2545 -18.47837,-3.0632 -32.00102,-10.7964 -16.2231,-9.2776 -14.87536,-8.6856 -27.71071,-12.1707 -11.53015,-3.1306 -15.17598,-4.8654 -36.05301,-17.1552 -15.07683,-8.8753 -29.34605,-15.6119 -36.02241,-17.0062 -4.92922,-1.0295 -5.65934,-0.918 -10.6783,1.6306 -11.05424,5.6133 -18.07151,4.4825 -43.01268,-6.9311 -6.82,-3.121 -14.81525,-6.1812 -17.76723,-6.8003 -5.17524,-1.0856 -5.46236,-1.0307 -8.02661,1.5336 -2.3669,2.3668 -2.70866,3.5981 -3.1074,11.1951 -0.40456,7.7078 -0.19139,9.0603 2.19768,13.9434 1.94602,3.9775 4.02851,6.3543 7.87462,8.9874 6.43788,4.4075 11.01173,6.0518 25.72893,9.2498 6.325,1.3744 14.11597,3.6724 17.31328,5.1068 11.92359,5.3493 17.91776,17.6904 11.91345,24.5281 -2.28171,2.5984 -4.29044,2.1736 -10.59054,-2.2396 -8.79535,-6.1612 -10.9625,-7.0104 -17.89019,-7.0104 -7.83249,0 -13.46747,-2.614 -22.746,-10.5517 -10.72839,-9.178 -22.84425,-13.9045 -38.75,-15.1166 l -8.25,-0.6288 0,2.7517 c 0,3.3503 4.73572,8.0899 13.93633,13.9476 7.99053,5.0873 8.95584,6.5217 7.02231,10.435 l -1.45864,2.9522 -20.14407,-7.3045 c -11.07924,-4.0175 -25.93706,-10.2502 -33.01737,-13.8505 -13.39434,-6.8109 -51.02984,-29.0492 -74.31543,-43.9119 -7.41228,-4.7311 -13.58521,-8.4937 -13.71761,-8.36129 -0.13241,0.1324 2.85955,8.65689 6.6488,18.94329 l 6.88953,18.7027 -1.98888,7.028 -1.98887,7.0281 6.68143,17.5244 c 7.73481,20.2873 8.40055,17.5569 -6.04753,24.8022 -9.91291,4.971 -13.44366,5.5357 -28.5,4.5583 z m 126.68555,-66.1225 c 1.27295,-1.1959 2.31445,-2.7709 2.31445,-3.5 0,-1.766 1.46014,-1.6811 3,0.1743 1.34797,1.6242 5.54885,2.039 6.4174,0.6336 0.82733,-1.3386 -2.24737,-3.6613 -11.7285,-8.8601 -7.73903,-4.2435 -9.17646,-5.4951 -12.94722,-11.2734 -3.55024,-5.4405 -5.54576,-7.2831 -12.24168,-11.30359 -16.1629,-9.7049 -18.75692,-10.7424 -25.20121,-10.07938 -4.56389,0.46955 -7.70621,0.0414 -14.75556,-2.01023 -9.95498,-2.89737 -12.54323,-3.18525 -12.54323,-1.39516 0,2.23083 10.94296,11.42718 19.9216,16.74191 6.72159,3.97875 9.00309,5.87215 9.36651,7.77325 0.46699,2.4428 0.35759,2.4964 -3.90383,1.9123 -2.41135,-0.3305 -4.38428,-0.1973 -4.38428,0.2959 0,3.4929 18.03641,12.8512 36.7671,19.0769 13.62488,4.5286 16.72777,4.8112 19.91845,1.8137 z m 36.19575,-49.05447 c 2.4909,-1.24914 4.69103,-2.80945 4.88919,-3.46735 0.19816,-0.65789 -1.54626,-2.39973 -3.8765,-3.87074 -2.33024,-1.47102 -8.14871,-6.38188 -12.92993,-10.91304 -14.12154,-13.38295 -26.93372,-23.17226 -34.5435,-26.39339 -8.46775,-3.58429 -17.04261,-6.17126 -17.83361,-5.38026 -1.27083,1.27082 -0.30681,2.28373 7.16305,7.52637 12.13534,8.51705 19.43255,16.87802 16.92189,19.38869 -0.31257,0.31257 -3.90731,-0.82172 -7.9883,-2.52065 -4.081,-1.69892 -8.74675,-3.19004 -10.36833,-3.3136 -3.23308,-0.24635 -9.7337,3.68674 -8.74296,5.28979 1.20354,1.94737 8.10402,5.62923 14.56271,7.77016 3.64926,1.20966 13.09926,6.02297 21,10.69625 l 14.36499,8.49686 6.4262,-0.51896 c 3.75913,-0.30357 8.30584,-1.46156 10.9551,-2.79013 z m -69.8813,-439.61266 c 0,-0.46282 -2.84104,-3.56961 -6.31343,-6.90396 -7.61984,-7.31695 -13.45413,-9.67986 -16.68383,-6.75703 -4.38398,3.96744 -1.12819,8.83009 6.59873,9.85544 2.69419,0.35752 7.14853,1.52832 9.89853,2.60176 5.70735,2.22784 6.5,2.37464 6.5,1.20379 z M 461.73863,481.43386 c 2.90099,-1.75819 6.51473,-4.19656 8.03053,-5.41861 l 2.756,-2.22191 -8.68788,-4.08943 c -7.91213,-3.72429 -9.06139,-4.00552 -12.87086,-3.14959 -2.30064,0.51692 -4.58672,1.3436 -5.08019,1.83707 -1.5567,1.5567 -1.3582,15.32489 0.23645,16.40085 2.41487,1.62939 10.12051,-0.0278 15.61595,-3.35838 z"
     id="path3037"
     inkscape:connector-curvature="0" />
</svg>
